Walking04_kinetics.mot
version=1
nRows=44
nColumns=19
inDegrees=yes
endheader
time	1_ground_force_vx	1_ground_force_vy	1_ground_force_vz	1_ground_force_px	1_ground_force_py	1_ground_force_pz	2_ground_force_vx	2_ground_force_vy	2_ground_force_vz	2_ground_force_px	2_ground_force_py	2_ground_force_pz	1_ground_torque_x	1_ground_torque_y	1_ground_torque_z	2_ground_torque_x	2_ground_torque_y	2_ground_torque_z
  0.49000000	-113.82155198	491.81515164	-17.20193909	  0.33477164	 -0.00040782	 -0.15461899	190.67840325	527.30378436	-11.12621273	 -0.21916701	  0.00236619	 -0.05207967	  0.00005057	 -0.03906489	 -0.00002487	  0.00214405	  1.64522578	  0.00005436
  0.49100000	-114.84846245	496.46348610	-17.46363427	  0.33508590	 -0.00040744	 -0.15458651	189.31547039	517.69142156	-10.12363127	 -0.21897790	  0.00236595	 -0.05216116	  0.00001995	 -0.01540983	 -0.00000981	  0.00208154	  1.59725522	  0.00005277
  0.49200000	-115.83928475	499.82886344	-17.55621078	  0.33541989	 -0.00040703	 -0.15454625	187.79683002	507.90343987	 -9.10070266	 -0.21878698	  0.00236570	 -0.05222898	 -0.00001610	  0.01243645	  0.00000792	  0.00201674	  1.54753652	  0.00005113
  0.49300000	-116.75538991	501.98001819	-17.49244700	  0.33576912	 -0.00040660	 -0.15450802	186.11024809	497.94834934	 -8.06078736	 -0.21859252	  0.00236545	 -0.05228139	 -0.00005721	  0.04419430	  0.00002813	  0.00194922	  1.49572115	  0.00004942
  0.49400000	-117.55965827	503.03373772	-17.29192788	  0.33612891	 -0.00040616	 -0.15448071	184.24347541	487.82753600	 -7.00984751	 -0.21838949	  0.00236519	 -0.05231927	 -0.00010236	  0.07907906	  0.00005034	  0.00187885	  1.44172511	  0.00004763
  0.49500000	-118.21921414	503.12632721	-16.97930800	  0.33649628	 -0.00040569	 -0.15447006	182.18475003	477.53692591	 -5.95556641	 -0.21817039	  0.00236490	 -0.05234482	 -0.00015024	  0.11606859	  0.00007389	  0.00180571	  1.38560093	  0.00004578
  0.49600000	-118.70917000	502.39617392	-16.58173464	  0.33687073	 -0.00040520	 -0.15447741	179.92276320	467.06820154	 -4.90605240	 -0.21792729	  0.00236459	 -0.05236062	 -0.00019958	  0.15418338	  0.00009815	  0.00173028	  1.32771994	  0.00004387
  0.49700000	-119.01613959	500.98062881	-16.12582690	  0.33725439	 -0.00040469	 -0.15450038	177.44683162	456.40995819	 -3.86871901	 -0.21765321	  0.00236423	 -0.05236963	 -0.00024930	  0.19259477	  0.00012261	  0.00165382	  1.26904969	  0.00004193
  0.49800000	-119.14045754	499.02704117	-15.63460659	  0.33765205	 -0.00040415	 -0.15453568	174.74757803	445.54936646	 -2.84979512	 -0.21734150	  0.00236382	 -0.05237610	 -0.00029831	  0.23046294	  0.00014671	  0.00157859	  1.21132293	  0.00004002
  0.49900000	-119.09704117	496.70609218	-15.12491907	  0.33807094	 -0.00040358	 -0.15458220	171.81716992	434.47549789	 -1.85440481	 -0.21698472	  0.00236336	 -0.05238645	 -0.00034524	  0.26671428	  0.00016979	  0.00150773	  1.15694985	  0.00003823
  0.50000000	-118.91497256	494.21217860	-14.60592090	  0.33852000	 -0.00040296	 -0.15464194	168.64772205	423.18562410	 -0.88702804	 -0.21657510	  0.00236283	 -0.05240845	 -0.00038839	  0.30005385	  0.00019102	  0.00144464	  1.10853463	  0.00003663
  0.50100000	-118.63584738	491.74890941	-14.07865193	  0.33900889	 -0.00040228	 -0.15471863	165.22833104	411.69284104	  0.04787819	 -0.21610657	  0.00236222	 -0.05244895	 -0.00042614	  0.32921713	  0.00020958	  0.00139198	  1.06812584	  0.00003529
  0.50200000	-118.31105510	489.51032609	-13.53629021	  0.33954720	 -0.00040152	 -0.15481603	161.54349077	400.02867286	  0.94553667	 -0.21557577	  0.00236153	 -0.05251233	 -0.00045715	  0.35317088	  0.00022483	  0.00135108	  1.03674592	  0.00003425
  0.50300000	-117.99815505	487.66642984	-12.96486854	  0.34014413	 -0.00040067	 -0.15493761	157.57467423	388.23691156	  1.80106642	 -0.21498064	  0.00236075	 -0.05260119	 -0.00048030	  0.37105502	  0.00023621	  0.00132215	  1.01454141	  0.00003352
  0.50400000	-117.75692499	486.35478958	-12.34463238	  0.34080820	 -0.00039971	 -0.15508689	153.30360550	376.36475805	  2.61000310	 -0.21431827	  0.00235989	 -0.05271766	 -0.00049441	  0.38195706	  0.00024316	  0.00130470	  1.00115442	  0.00003308
  0.50500000	-117.64569935	485.67817004	-11.65239294	  0.34154587	 -0.00039864	 -0.15526754	148.71478168	364.45994838	  3.36871199	 -0.21358473	  0.00235894	 -0.05286314	 -0.00049795	  0.38469240	  0.00024490	  0.00129761	  0.99571490	  0.00003290
  0.50600000	-117.71816872	485.70605626	-10.86479692	  0.34235952	 -0.00039745	 -0.15548281	143.79689394	352.57439500	  4.07463045	 -0.21277714	  0.00235790	 -0.05303638	 -0.00048894	  0.37773190	  0.00024047	  0.00129855	  0.99643330	  0.00003292
  0.50700000	-118.02095948	486.47472358	 -9.96178008	  0.34324619	 -0.00039615	 -0.15573439	138.54440371	340.76758080	  4.72653096	 -0.21189583	  0.00235675	 -0.05323208	 -0.00046537	  0.35952293	  0.00022887	  0.00130363	  1.00033088	  0.00003305
  0.50800000	-118.59220058	487.98312479	 -8.92958333	  0.34419821	 -0.00039473	 -0.15602106	132.96021157	329.10463293	  5.32485360	 -0.21094506	  0.00235552	 -0.05344147	 -0.00042622	  0.32927496	  0.00020962	  0.00130777	  1.00351066	  0.00003316
  0.50900000	-119.46057020	490.18954241	 -7.76319430	  0.34520511	 -0.00039323	 -0.15633771	127.05957064	317.65010260	  5.87176497	 -0.20993266	  0.00235421	 -0.05365461	 -0.00037237	  0.28767135	  0.00018313	  0.00130561	  1.00185437	  0.00003310
  0.51000000	-120.64423016	493.01659651	 -6.46814684	  0.34625568	 -0.00039165	 -0.15667572	120.87504521	306.46016987	  6.37045548	 -0.20886926	  0.00235283	 -0.05386325	 -0.00030650	  0.23678831	  0.00015074	  0.00129263	  0.99189541	  0.00003277
  0.51100000	-122.14969445	496.36459267	 -5.06139421	  0.34733963	 -0.00039003	 -0.15702448	114.46134626	295.57496459	  6.82371893	 -0.20776747	  0.00235140	 -0.05406348	 -0.00023200	  0.17922902	  0.00011410	  0.00126626	  0.97165410	  0.00003210
  0.51200000	-123.97156177	500.12527149	 -3.57043054	  0.34844846	 -0.00038837	 -0.15737330	107.89682902	285.01382077	  7.23245095	 -0.20664076	  0.00234994	 -0.05425610	 -0.00015173	  0.11721984	  0.00007462	  0.00122633	  0.94101379	  0.00003109
  0.51300000	-126.09374903	504.19017083	 -2.03010546	  0.34957504	 -0.00038669	 -0.15771266	101.27945228	274.77538317	  7.59462529	 -0.20550200	  0.00234846	 -0.05444371	 -0.00006761	  0.05222922	  0.00003325	  0.00117470	  0.90139662	  0.00002978
  0.51400000	-128.49125206	508.45443458	 -0.47802389	  0.35071294	 -0.00038502	 -0.15803498	 94.71949038	264.84049239	  7.90503983	 -0.20436228	  0.00234698	 -0.05462693	  0.00001938	 -0.01497473	 -0.00000953	  0.00111448	  0.85519136	  0.00002826
  0.51500000	-131.13116106	512.81891668	  1.05027984	  0.35185617	 -0.00038334	 -0.15833519	 88.33232028	255.17490907	  8.15606115	 -0.20323043	  0.00234551	 -0.05480317	  0.00010885	 -0.08409110	 -0.00005353	  0.00104981	  0.80556454	  0.00002662
  0.51600000	-133.97301677	517.19250207	  2.52566375	  0.35299954	 -0.00038169	 -0.15861089	 82.23106379	245.73209317	  8.33933225	 -0.20211343	  0.00234406	 -0.05496806	  0.00020062	 -0.15499249	 -0.00009867	  0.00098596	  0.75656725	  0.00002500
  0.51700000	-136.96986200	521.49682820	  3.92792349	  0.35413911	 -0.00038005	 -0.15886204	 76.51588384	236.45948441	  8.44807188	 -0.20101755	  0.00234264	 -0.05511736	  0.00029441	 -0.22744622	 -0.00014479	  0.00092874	  0.71265952	  0.00002355
  0.51800000	-140.07084487	525.67422256	  5.24566451	  0.35527206	 -0.00037844	 -0.15908988	 71.25913012	227.30969333	  8.47937495	 -0.19994966	  0.00234125	 -0.05524758	  0.00038952	 -0.30092588	 -0.00019157	  0.00088252	  0.67719910	  0.00002237
  0.51900000	-143.22413008	529.69499715	  6.47428097	  0.35639643	 -0.00037686	 -0.15929598	 66.49339986	218.25049199	  8.43528267	 -0.19891673	  0.00233991	 -0.05535694	  0.00048486	 -0.37457632	 -0.00023846	  0.00084830	  0.65093702	  0.00002151
  0.52000000	-146.37835222	533.55879641	  7.61318048	  0.35751119	 -0.00037529	 -0.15948210	 62.21212983	209.26535312	  8.32114731	 -0.19792120	  0.00233862	 -0.05544875	  0.00057912	 -0.44739748	 -0.00028481	  0.00082362	  0.63199884	  0.00002088
  0.52100000	-149.48284771	537.28994538	  8.66301942	  0.35861654	 -0.00037376	 -0.15965097	 58.38231678	200.34510070	  8.14187703	 -0.19695369	  0.00233736	 -0.05553649	  0.00067125	 -0.51857289	 -0.00033013	  0.00080454	  0.61735595	  0.00002040
  0.52200000	-152.48877997	540.93173423	  9.62407820	  0.35971343	 -0.00037224	 -0.15980645	 54.95876641	191.48038635	  7.89930979	 -0.19598993	  0.00233611	 -0.05564533	  0.00076066	 -0.58764847	 -0.00037410	  0.00078756	  0.60432707	  0.00001997
  0.52300000	-155.35241044	544.54301108	 10.49645198	  0.36080204	 -0.00037074	 -0.15995224	 51.89212389	182.66204308	  7.59293055	 -0.19499651	  0.00233482	 -0.05580664	  0.00084702	 -0.65436567	 -0.00041657	  0.00077025	  0.59104646	  0.00001953
  0.52400000	-158.03880537	548.19571187	 11.28116653	  0.36187966	 -0.00036925	 -0.16009034	 49.13191193	173.88695236	  7.22249315	 -0.19394190	  0.00233345	 -0.05604842	  0.00092979	 -0.71831433	 -0.00045728	  0.00075090	  0.57620066	  0.00001904
  0.52500000	-160.52337745	551.97044767	 11.98088559	  0.36293952	 -0.00036780	 -0.16022094	 46.62852527	165.16443055	  6.79008365	 -0.19280694	  0.00233198	 -0.05638618	  0.00100792	 -0.77866901	 -0.00049570	  0.00072812	  0.55872138	  0.00001846
  0.52600000	-162.79100997	555.94903119	 12.59986561	  0.36397074	 -0.00036638	 -0.16034365	 44.33548811	156.52004378	  6.30089102	 -0.19159197	  0.00233041	 -0.05681671	  0.00107966	 -0.83409339	 -0.00053099	  0.00070071	  0.53768480	  0.00001776
  0.52700000	-164.83436326	560.20397979	 13.14346600	  0.36496020	 -0.00036503	 -0.16045862	 42.21158810	147.99253809	  5.76293883	 -0.19031745	  0.00232877	 -0.05731780	  0.00114271	 -0.88280083	 -0.00056199	  0.00066785	  0.51247245	  0.00001693
  0.52800000	-166.65251812	564.78607874	 13.61745998	  0.36589595	 -0.00036375	 -0.16056638	 40.22246873	139.62216071	  5.18609809	 -0.18901733	  0.00232709	 -0.05785474	  0.00119443	 -0.92275796	 -0.00058743	  0.00062966	  0.48316252	  0.00001596
  0.52900000	-168.25001334	569.71452335	 14.02732336	  0.36677053	 -0.00036256	 -0.16066703	 38.34106393	131.43814390	  4.58110468	 -0.18773176	  0.00232543	 -0.05838659	  0.00123227	 -0.95199303	 -0.00060604	  0.00058751	  0.45082314	  0.00001490
  0.53000000	-169.63590650	574.97534384	 14.37762232	  0.36758137	 -0.00036145	 -0.16076000	 36.54620494	123.45579122	  3.95937584	 -0.18650795	  0.00232386	 -0.05886311	  0.00125424	 -0.96896807	 -0.00061685	  0.00054381	  0.41729050	  0.00001379
  0.53100000	-170.82278081	580.52809599	 14.67157002	  0.36832862	 -0.00036043	 -0.16084441	 34.81975246	115.68303634	  3.33346029	 -0.18540859	  0.00232243	 -0.05921314	  0.00125938	 -0.97293221	 -0.00061937	  0.00050105	  0.38447809	  0.00001270
  0.53200000	-171.82587164	586.31519645	 14.91087961	  0.36901337	 -0.00035949	 -0.16091965	 33.14380234	108.12586222	  2.71690600	 -0.18451749	  0.00232128	 -0.05933606	  0.00124786	 -0.96403489	 -0.00061371	  0.00046105	  0.35378111	  0.00001169
  0.53300000	-172.66238225	592.26968630	 15.09599437	  0.36963798	 -0.00035864	 -0.16098558	 31.49918854	100.78532595	  2.12282962	 -0.18393576	  0.00232051	 -0.05910390	  0.00122072	 -0.94306768	 -0.00060036	  0.00042481	  0.32597261	  0.00001077
